HIERARCHY
ROOT Hips
{
    OFFSET   0.000000   0.000000   0.000000
    CHANNELS 6 Xposition Yposition Zposition Zrotation Xrotation Yrotation
    JOINT Chest
    {
        OFFSET   0.000000   8.007230   0.000000
        CHANNELS 3 Zrotation Xrotation Yrotation
        JOINT Chest2
        {
            OFFSET   0.000000  22.077100   0.000000
            CHANNELS 3 Zrotation Xrotation Yrotation
            JOINT Neck
            {
                OFFSET   0.000000  23.255100   0.000000
                CHANNELS 3 Zrotation Xrotation Yrotation
                JOINT Head
                {
                    OFFSET   0.000000  14.370100   1.956600
                    CHANNELS 3 Zrotation Xrotation Yrotation
                    End Site
                    {
                        OFFSET   0.000000  19.566000   0.000000
                    }
                }
            }
            JOINT LeftCollar
            {
                OFFSET   3.911900  19.017000  -0.467063
                CHANNELS 3 Zrotation Xrotation Yrotation
                JOINT LeftShoulder
                {
                    OFFSET  10.383700   0.000000   0.000000
                    CHANNELS 3 Zrotation Xrotation Yrotation
                    JOINT LeftElbow
                    {
                        OFFSET  26.662100   0.001193   0.000980
                        CHANNELS 3 Zrotation Xrotation Yrotation
                        JOINT LeftWrist
                        {
                            OFFSET  28.869000  -0.000059  -0.000082
                            CHANNELS 3 Zrotation Xrotation Yrotation
                            JOINT LeftFinger0
                            {
                                OFFSET   2.044650  -2.323450   3.252850
                                CHANNELS 3 Zrotation Xrotation Yrotation
                                JOINT LeftFinger01
                                {
                                    OFFSET   3.088130   0.000000   0.000000
                                    CHANNELS 3 Zrotation Xrotation Yrotation
                                    JOINT LeftFinger02
                                    {
                                        OFFSET   2.639460   0.000000   0.000000
                                        CHANNELS 3 Zrotation Xrotation Yrotation
                                        End Site
                                        {
                                            OFFSET   2.582190   0.000000   0.000000
                                        }
                                    }
                                }
                            }
                            JOINT LeftFinger1
                            {
                                OFFSET   8.364480   0.000000   3.252850
                                CHANNELS 3 Zrotation Xrotation Yrotation
                                JOINT LeftFinger11
                                {
                                    OFFSET   4.646930   0.000000   0.000000
                                    CHANNELS 3 Zrotation Xrotation Yrotation
                                    JOINT LeftFinger12
                                    {
                                        OFFSET   2.323470   0.000000   0.000000
                                        CHANNELS 3 Zrotation Xrotation Yrotation
                                        End Site
                                        {
                                            OFFSET   2.273050   0.000000   0.000000
                                        }
                                    }
                                }
                            }
                            JOINT LeftFinger2
                            {
                                OFFSET   8.364490   0.000016   1.078090
                                CHANNELS 3 Zrotation Xrotation Yrotation
                                JOINT LeftFinger21
                                {
                                    OFFSET   5.111610   0.000000   0.000000
                                    CHANNELS 3 Zrotation Xrotation Yrotation
                                    JOINT LeftFinger22
                                    {
                                        OFFSET   2.788150   0.000016   0.000000
                                        CHANNELS 3 Zrotation Xrotation Yrotation
                                        End Site
                                        {
                                            OFFSET   2.727660   0.000000   0.000000
                                        }
                                    }
                                }
                            }
                            JOINT LeftFinger3
                            {
                                OFFSET   7.899780   0.000015  -1.078090
                                CHANNELS 3 Zrotation Xrotation Yrotation
                                JOINT LeftFinger31
                                {
                                    OFFSET   4.646930   0.000000   0.000000
                                    CHANNELS 3 Zrotation Xrotation Yrotation
                                    JOINT LeftFinger32
                                    {
                                        OFFSET   2.323470   0.000000   0.000000
                                        CHANNELS 3 Zrotation Xrotation Yrotation
                                        End Site
                                        {
                                            OFFSET   2.273050   0.000000   0.000000
                                        }
                                    }
                                }
                            }
                            JOINT LeftFinger4
                            {
                                OFFSET   7.435090   0.000000  -3.252850
                                CHANNELS 3 Zrotation Xrotation Yrotation
                                JOINT LeftFinger41
                                {
                                    OFFSET   3.717550   0.000000   0.000000
                                    CHANNELS 3 Zrotation Xrotation Yrotation
                                    JOINT LeftFinger42
                                    {
                                        OFFSET   1.858770   0.000000   0.000000
                                        CHANNELS 3 Zrotation Xrotation Yrotation
                                        End Site
                                        {
                                            OFFSET   1.818440   0.000000   0.000000
                                        }
                                    }
                                }
                            }
                        }
                    }
                }
            }
            JOINT RightCollar
            {
                OFFSET  -3.911910  19.017000  -0.467062
                CHANNELS 3 Zrotation Xrotation Yrotation
                JOINT RightShoulder
                {
                    OFFSET -10.383700   0.000014   0.000000
                    CHANNELS 3 Zrotation Xrotation Yrotation
                    JOINT RightElbow
                    {
                        OFFSET -26.662100   0.001225   0.001091
                        CHANNELS 3 Zrotation Xrotation Yrotation
                        JOINT RightWrist
                        {
                            OFFSET -28.869000  -0.000020  -0.000085
                            CHANNELS 3 Zrotation Xrotation Yrotation
                            JOINT RightFinger0
                            {
                                OFFSET  -2.044650  -2.323490   3.252850
                                CHANNELS 3 Zrotation Xrotation Yrotation
                                JOINT RightFinger01
                                {
                                    OFFSET  -3.088130   0.000000   0.000000
                                    CHANNELS 3 Zrotation Xrotation Yrotation
                                    JOINT RightFinger02
                                    {
                                        OFFSET  -2.639460   0.000000   0.000000
                                        CHANNELS 3 Zrotation Xrotation Yrotation
                                        End Site
                                        {
                                            OFFSET  -2.582190   0.000000   0.000000
                                        }
                                    }
                                }
                            }
                            JOINT RightFinger1
                            {
                                OFFSET  -8.364480   0.000000   3.252850
                                CHANNELS 3 Zrotation Xrotation Yrotation
                                JOINT RightFinger11
                                {
                                    OFFSET  -4.646930   0.000000   0.000000
                                    CHANNELS 3 Zrotation Xrotation Yrotation
                                    JOINT RightFinger12
                                    {
                                        OFFSET  -2.323470   0.000000   0.000000
                                        CHANNELS 3 Zrotation Xrotation Yrotation
                                        End Site
                                        {
                                            OFFSET  -2.273050   0.000000   0.000000
                                        }
                                    }
                                }
                            }
                            JOINT RightFinger2
                            {
                                OFFSET  -8.364480   0.000000   1.078090
                                CHANNELS 3 Zrotation Xrotation Yrotation
                                JOINT RightFinger21
                                {
                                    OFFSET  -5.111620   0.000000   0.000000
                                    CHANNELS 3 Zrotation Xrotation Yrotation
                                    JOINT RightFinger22
                                    {
                                        OFFSET  -2.788160   0.000000   0.000000
                                        CHANNELS 3 Zrotation Xrotation Yrotation
                                        End Site
                                        {
                                            OFFSET  -2.727660   0.000000   0.000000
                                        }
                                    }
                                }
                            }
                            JOINT RightFinger3
                            {
                                OFFSET  -7.899780   0.000000  -1.078090
                                CHANNELS 3 Zrotation Xrotation Yrotation
                                JOINT RightFinger31
                                {
                                    OFFSET  -4.646930   0.000000   0.000000
                                    CHANNELS 3 Zrotation Xrotation Yrotation
                                    JOINT RightFinger32
                                    {
                                        OFFSET  -2.323470   0.000000   0.000000
                                        CHANNELS 3 Zrotation Xrotation Yrotation
                                        End Site
                                        {
                                            OFFSET  -2.273050   0.000000   0.000000
                                        }
                                    }
                                }
                            }
                            JOINT RightFinger4
                            {
                                OFFSET  -7.435090   0.000000  -3.252850
                                CHANNELS 3 Zrotation Xrotation Yrotation
                                JOINT RightFinger41
                                {
                                    OFFSET  -3.717550   0.000000   0.000000
                                    CHANNELS 3 Zrotation Xrotation Yrotation
                                    JOINT RightFinger42
                                    {
                                        OFFSET  -1.858760   0.000000   0.000000
                                        CHANNELS 3 Zrotation Xrotation Yrotation
                                        End Site
                                        {
                                            OFFSET  -1.818440   0.000000   0.000000
                                        }
                                    }
                                }
                            }
                        }
                    }
                }
            }
        }
    }
    JOINT LeftHip
    {
        OFFSET   9.783030   0.000000   0.000000
        CHANNELS 3 Zrotation Xrotation Yrotation
        JOINT LeftKnee
        {
            OFFSET   0.000063 -41.789100   0.000608
            CHANNELS 3 Zrotation Xrotation Yrotation
            JOINT LeftAnkle
            {
                OFFSET   0.000048 -41.133200  -0.000184
                CHANNELS 3 Zrotation Xrotation Yrotation
                JOINT LeftToe
                {
                    OFFSET   0.000000  -6.358960  14.674500
                    CHANNELS 3 Zrotation Xrotation Yrotation
                    End Site
                    {
                        OFFSET   0.000000   0.000000   3.913200
                    }
                }
            }
        }
    }
    JOINT RightHip
    {
        OFFSET  -9.783030   0.000000   0.000000
        CHANNELS 3 Zrotation Xrotation Yrotation
        JOINT RightKnee
        {
            OFFSET   0.000071 -41.789100   0.001239
            CHANNELS 3 Zrotation Xrotation Yrotation
            JOINT RightAnkle
            {
                OFFSET   0.000037 -41.133200  -0.000166
                CHANNELS 3 Zrotation Xrotation Yrotation
                JOINT RightToe
                {
                    OFFSET   0.000000  -6.358960  14.674500
                    CHANNELS 3 Zrotation Xrotation Yrotation
                    End Site
                    {
                        OFFSET   0.000000   0.000000   3.913200
                    }
                }
            }
        }
    }
}
MOTION
Frames: 6
Frame Time:   0.016667
 -3.801790  89.609600  -2.018400  -4.625580 -20.840900  -3.297960   0.794897  11.411800  -1.977440   2.063560  22.786500  -4.250480   2.401720   2.141000  -0.090507   3.956930   4.318620   3.086390  -3.324480  -9.154130  -4.845130 -32.825000  19.829800 -70.142900   7.336130   3.760970  -7.825710  22.882300  11.741400  17.254400  38.057400  27.659600 -36.707700 -30.411100  -0.030062  -0.014225 -10.171000  -0.012847  -0.006080 -16.372800  -1.870420   6.157690 -13.506300  -0.025236  -0.008403  -9.454390  -0.016411  -0.008905 -20.281400  -2.949570   7.464230 -20.503100  -0.055206  -0.034032 -13.655100  -0.030494  -0.030510 -19.192000  -2.829290   7.497370 -19.415600  -0.072042  -0.043727 -12.930800  -0.040466  -0.038880 -23.124000  -3.363710   7.270420 -35.052900  -0.085491  -0.104088 -23.345100  -0.025310  -0.085912   5.883650  -7.006440  12.581400  43.456500  17.870700  42.163200 -32.458000  -5.688200  50.941600  -6.460390  13.099000   6.738210 -43.182300  29.283400  49.951100  22.989500  -0.009763   0.004655   6.494740  -0.004821   0.005977  13.050700  -2.109920  -8.987710  10.816000  -0.017339   0.004121   7.571190  -0.011708   0.004181  15.409700  -2.467120  -8.896200  15.601600  -0.023558   0.007925  10.390700  -0.014551   0.007917  11.602000  -1.882010  -9.043010  11.752300  -0.032231   0.007640   7.827010  -0.020848   0.008872  18.813600  -5.257870 -15.035200  29.265300  -0.039939   0.024970  19.490700  -0.020131   0.024063   4.613680  23.965500   1.379680   2.467250   0.825191   1.041940  -3.708780  -4.350300   0.136188  -0.000000   0.000000   0.000000   6.562080  21.957200  -9.428590  -0.613537   3.886980  -5.873840  -0.709086  -5.941810   4.201910  -0.000000   0.000000   0.000000
 -3.752640  89.638200  -2.018930  -4.823240 -20.892000  -3.638560   0.791260  11.448500  -2.141330   2.093520  22.856700  -4.589330   1.814920   1.886330  -0.060476   2.987310   3.815680   3.637300  -3.391500  -8.593210  -4.963720 -35.116200  18.581700 -66.452100   4.948420   0.683170  -2.483240  23.134000  12.466400  18.192900  38.781000  27.343000 -36.506400 -28.444700  -0.015346  -0.006082  -9.222350  -0.007130  -0.004249 -15.563100  -1.408510   5.056250 -12.817300  -0.011226   0.001543  -8.972110  -0.007859  -0.000185 -18.911700  -2.483900   7.118800 -19.132100  -0.034599  -0.016306 -12.742000  -0.019919  -0.015790 -17.061600  -2.301900   7.171500 -17.270500  -0.052348  -0.030492 -11.502100  -0.029892  -0.027207 -20.784800  -2.750550   7.014140 -31.532900  -0.058431  -0.061781 -21.000900  -0.020427  -0.052835   5.976720  -6.753590  12.481500  43.738200  17.191400  41.740800 -30.073800  -2.006680  44.309100  -5.371940  13.576700   5.248040 -42.801800  28.042100  48.902700  22.633000  -0.023989   0.010084   6.316500  -0.010911   0.013177  13.046900  -2.117160  -9.102300  10.817400  -0.024959   0.007208   7.572180  -0.016724   0.007121  15.264100  -2.468070  -9.013870  15.464300  -0.026842   0.011370  10.299200  -0.016351   0.010451  11.280900  -1.837980  -9.164530  11.434400  -0.036166   0.011112   7.615320  -0.023290   0.012019  18.634900  -5.209160 -15.053600  29.003000  -0.058522   0.037322  19.316000  -0.029497   0.035567   4.736740  24.232400   1.472840   2.349020   0.567851   1.178170  -3.679400  -4.274290   0.167489   0.000000   0.000000   0.000000   6.602370  21.980200  -9.469930  -0.650569   3.936260  -5.683660  -0.658486  -5.918000   4.344460   0.000000   0.000000   0.000000
 -3.724190  89.646200  -1.993050  -5.066080 -20.853900  -4.105370   0.801363  11.483900  -2.120170   2.112150  22.927900  -4.549370   1.352250   1.584580  -0.038683   2.224610   3.209830   3.834590  -3.203490  -8.028700  -4.869690 -37.263700  17.822700 -62.530200   4.013760  -1.056690  -0.322379  23.435800  13.093800  18.831500  39.251300  26.910100 -38.323800 -27.185400  -0.006489  -0.002286  -8.594520  -0.002745  -0.004071 -14.743100  -0.386684   1.410460 -12.072300   0.001286   0.005282  -8.450630   0.000291   0.005782 -18.043500  -1.203700   3.935840 -18.080000  -0.008759  -0.000502 -12.041300  -0.005524  -0.001710 -15.905400  -1.051570   3.984680 -15.927200  -0.022064  -0.013386 -10.607500  -0.012684  -0.011650 -19.344100  -1.290160   3.924630 -29.069400  -0.021636  -0.018222 -19.360200  -0.008907  -0.016551   6.065920  -6.708440  12.070600  43.634700  16.679300  41.319600 -26.144300   0.070010  37.801700  -4.878520  15.111000   3.871240 -43.027300  27.210600  48.425800  21.614400  -0.028316   0.010712   5.807200  -0.012794   0.016096  12.797300  -2.007570  -8.758030  10.599500  -0.031746   0.007901   7.419680  -0.021340   0.008408  14.967200  -2.344850  -8.674030  15.151500  -0.033666   0.013140  10.090900  -0.020604   0.012423  10.800900  -1.694390  -8.820580  10.937000  -0.039270   0.010411   7.284040  -0.025288   0.011123  18.102100  -4.965390 -14.767900  28.138800  -0.065277   0.040050  18.740400  -0.033058   0.038833   4.857460  24.467100   1.532820   2.230350   0.276311   1.411550  -3.647090  -4.218530   0.273506  -0.000000   0.000000   0.000000   6.603890  21.916100  -9.551380  -0.664076   3.994820  -5.371850  -0.607713  -5.881500   4.549610  -0.000000   0.000000  -0.000000
 -3.702680  89.647400  -1.954100  -5.312390 -20.760400  -4.613320   0.801696  11.519600  -2.021270   2.093090  23.001000  -4.346800   1.004360   1.237320  -0.022833   1.651410   2.507850   3.860740  -3.002980  -7.519880  -4.632270 -39.069800  17.227800 -58.585800   3.550180  -1.688740   0.002842  23.947200  13.544400  19.102300  39.642800  26.211600 -41.031200 -26.654500  -0.003209  -0.001573  -8.327240  -0.000809  -0.004019 -14.046900   0.685776  -2.765040 -11.495500   0.007892   0.005884  -8.046870   0.004736   0.008460 -17.333900   0.237521  -0.624016 -17.286200   0.007792   0.008596 -11.512600   0.003877   0.006704 -15.320000   0.308204  -0.609117 -15.282200  -0.001710  -0.001617 -10.178000  -0.001033  -0.001148 -18.447000   0.307335  -0.599260 -27.592600   0.002388   0.008163 -18.376700  -0.000668   0.005860   6.115140  -6.712850  11.561700  43.581300  16.112500  40.547200 -21.641100   0.628945  31.742200  -4.648350  17.087100   2.784890 -43.535300  26.835000  48.333500  20.321900  -0.028935   0.010802   5.160920  -0.013063   0.016991  12.326500  -1.777120  -8.015400  10.187300  -0.034925   0.008000   7.131130  -0.023542   0.008660  14.588500  -2.088010  -7.940170  14.733200  -0.037642   0.013547   9.812330  -0.023140   0.013190  10.266900  -1.478020  -8.074980  10.371700  -0.039961   0.008320   6.907560  -0.025753   0.008724  17.441800  -4.571020 -14.149900  27.021800  -0.066242   0.040440  17.996500  -0.033567   0.039299   4.925240  24.587800   1.557730   2.155570   0.104834   1.673550  -3.606430  -4.192900   0.453390  -0.000000   0.000000   0.000000   6.566610  21.796800  -9.640320  -0.667185   4.030950  -5.023050  -0.556842  -5.828830   4.787480   0.000000   0.000000   0.000000
 -3.673550  89.631100  -1.932450  -5.521170 -20.605500  -5.087210   0.767643  11.565100  -1.793200   1.988550  23.098000  -3.872850   0.781525   0.831323  -0.012583   1.272180   1.685540   3.676500  -2.961610  -7.218020  -4.276290 -40.247800  16.846400 -54.931100   2.960400  -1.474130  -0.348305  25.505500  13.807100  17.430100  38.937800  25.719400 -42.853000 -27.602800  -0.003159  -0.001618  -8.801430  -0.000801  -0.003939 -13.773600   1.355930  -5.487680 -11.306100   0.005932   0.003207  -7.914270   0.003427   0.008372 -17.029700   1.345740  -4.295530 -17.045100   0.000351   0.002306 -11.352100   0.003645   0.006805 -15.326600   1.272180  -4.318110 -15.360600  -0.001635  -0.000786 -10.230200  -0.001063  -0.000652 -18.244200   1.474050  -4.251520 -27.397300   0.002128   0.008039 -18.246600  -0.000888   0.005656   6.154050  -6.933290  11.220800  44.124600  15.056700  38.776100 -17.581000   0.353644  27.040600  -5.411690  18.853700   2.147610 -44.116300  26.571600  48.943900  18.797600  -0.015138   0.005652   4.398790  -0.006829   0.009023  11.676100  -1.455840  -6.987540   9.627730  -0.013168   0.003245   6.739430  -0.008880   0.003661  14.013100  -1.737340  -6.923140  14.121100  -0.014333   0.004979   9.404640  -0.008816   0.004921   9.672100  -1.209000  -7.034090   9.748480  -0.018483   0.003703   6.492490  -0.011896   0.003785  16.751200  -4.095410 -13.285300  25.862900  -0.025907   0.015547  17.224700  -0.013143   0.015231   4.918060  24.551000   1.526410   2.144090   0.108250   1.926420  -3.551600  -4.261670   0.701859   0.000000   0.000000   0.000000   6.491700  21.656700  -9.736280  -0.639522   4.012640  -4.699820  -0.509315  -5.751950   5.050240   0.000000   0.000000   0.000000
 -3.641590  89.599800  -1.914420  -5.674870 -20.418800  -5.478050   0.718407  11.609100  -1.520390   1.816600  23.193100  -3.297890   0.698202   0.398684  -0.005390   1.147000   0.808179   3.378210  -2.957260  -7.029850  -3.788430 -40.954700  16.684100 -51.678000   2.407580  -1.259400  -0.952008  26.952600  14.012500  14.912400  38.295400  25.464600 -43.768500 -28.975400  -0.003144  -0.001690  -9.487720  -0.000800  -0.003879 -13.684700   1.642820  -6.736640 -11.279000   0.002564   0.000000  -7.895320   0.001417   0.008198 -16.817400   1.898390  -6.292960 -16.937600  -0.007090  -0.004058 -11.280500   0.003259   0.006843 -15.330300   1.725720  -6.340020 -15.439000  -0.001615  -0.000534 -10.282400  -0.001110  -0.000572 -18.034600   2.034490  -6.248590 -27.243800   0.001690   0.007810 -18.144400  -0.001254   0.005256   6.226940  -7.296650  11.062400  44.743400  13.915100  36.567100 -14.186800  -0.233050  23.081800  -6.902240  20.269200   1.933490 -44.669800  26.214400  49.917300  17.664700  -0.000929   0.000368   3.832350  -0.000421   0.000784  11.263800  -1.148510  -5.915850   9.262540   0.008589  -0.001764   6.483780   0.005782  -0.001339  13.656800  -1.397140  -5.862260  13.726200   0.008976  -0.003589   9.141650   0.005508  -0.003349   9.334050  -0.956977  -5.949860   9.381840   0.002994   0.000000   6.248300   0.001961   0.000000  16.390900  -3.670470 -12.387000  25.181700   0.014428  -0.009347  16.771000   0.007280  -0.008837   4.873430  24.461500   1.476550   2.142100   0.111670   2.089490  -3.484650  -4.362540   0.973327  -0.000000   0.000000   0.000000   6.389260  21.523800  -9.788950  -0.590860   3.936960  -4.462760  -0.463333  -5.661710   5.291620  -0.000000   0.000000   0.000000
